#tb 0: 1/25
0,          0,          0,        1,   149760, 0x0d2edbbc
0,          1,          1,        1,   149760, 0x4830af95
0,          2,          2,        1,   149760, 0x39e8d3bb
0,          3,          3,        1,   149760, 0x3cc8d639
0,          4,          4,        1,   149760, 0xfcfe8415
0,          5,          5,        1,   149760, 0xa6cf9a48
0,          6,          6,        1,   149760, 0x0fe191b3
0,          7,          7,        1,   149760, 0x71d26e20
0,          8,          8,        1,   149760, 0x1ee5541a
0,          9,          9,        1,   149760, 0x4ac56652
0,         10,         10,        1,   149760, 0x967e7c2c
0,         11,         11,        1,   149760, 0x2011ba0c
0,         12,         12,        1,   149760, 0x2da4bc05
0,         13,         13,        1,   149760, 0x6354fac2
0,         14,         14,        1,   149760, 0x799e66ce
0,         15,         15,        1,   149760, 0x2ca24940
0,         16,         16,        1,   149760, 0x2a102e28
0,         17,         17,        1,   149760, 0x652edcce
0,         18,         18,        1,   149760, 0xb1c34a9a
0,         19,         19,        1,   149760, 0xfae6ce90
0,         20,         20,        1,   149760, 0xf42fddbf
0,         21,         21,        1,   149760, 0x2a8532c3
0,         22,         22,        1,   149760, 0xbe43addc
0,         23,         23,        1,   149760, 0x3545f94a
0,         24,         24,        1,   149760, 0xa35fa6fa
0,         25,         25,        1,   149760, 0xfed8577f
0,         26,         26,        1,   149760, 0xac03b492
0,         27,         27,        1,   149760, 0x1fbdabc9
0,         28,         28,        1,   149760, 0x99707175
0,         29,         29,        1,   149760, 0x95e69481
0,         30,         30,        1,   149760, 0xd68412d8
0,         31,         31,        1,   149760, 0x9f900e37
0,         32,         32,        1,   149760, 0x7e6eceba
0,         33,         33,        1,   149760, 0xd1ca85af
0,         34,         34,        1,   149760, 0x352b1d50
0,         35,         35,        1,   149760, 0xdef3e377
0,         36,         36,        1,   149760, 0x08efcc16
0,         37,         37,        1,   149760, 0xc20a7c74
0,         38,         38,        1,   149760, 0xa8e45939
0,         39,         39,        1,   149760, 0x322546cf
0,         40,         40,        1,   149760, 0xf7167766
0,         41,         41,        1,   149760, 0x959f808f
0,         42,         42,        1,   149760, 0xcca5ccc3
0,         43,         43,        1,   149760, 0x18789407
0,         44,         44,        1,   149760, 0xf6c97e87
0,         45,         45,        1,   149760, 0x58aaba55
0,         46,         46,        1,   149760, 0xc3529005
0,         47,         47,        1,   149760, 0x3847adb4
0,         48,         48,        1,   149760, 0xa4d589db
0,         49,         49,        1,   149760, 0x9c50dd88
0,         50,         50,        1,   149760, 0xad087c44
0,         51,         51,        1,   149760, 0x4a6b656d
0,         52,         52,        1,   149760, 0x6ec79bcf
0,         53,         53,        1,   149760, 0x82756cb6
0,         54,         54,        1,   149760, 0x8b3a9a6a
0,         55,         55,        1,   149760, 0x775c0430
0,         56,         56,        1,   149760, 0xbaa08d27
0,         57,         57,        1,   149760, 0x686cd03f
0,         58,         58,        1,   149760, 0x1b10dc94
0,         59,         59,        1,   149760, 0xde81e414
